<svg xmlns="http://www.w3.org/2000/svg" xmlns:xlink="http://www.w3.org/1999/xlink" width="1080" zoomAndPan="magnify" viewBox="0 0 810 1439.999935" height="1920" preserveAspectRatio="xMidYMid meet" version="1.0"><defs><clipPath id="d49e6dfaaf"><path d="M 243 581.894531 L 567 581.894531 L 567 806 L 243 806 Z M 243 581.894531 " clip-rule="nonzero"/></clipPath><clipPath id="8e37727ab8"><path d="M 318 826 L 350 826 L 350 857.894531 L 318 857.894531 Z M 318 826 " clip-rule="nonzero"/></clipPath><clipPath id="73f0ca2234"><path d="M 393 826 L 425 826 L 425 857.894531 L 393 857.894531 Z M 393 826 " clip-rule="nonzero"/></clipPath></defs><g clip-path="url(#d49e6dfaaf)"><path fill="#545454" d="M 293.292969 738.25 L 262.066406 634.015625 L 300.097656 634.015625 C 300.152344 634.253906 300.195312 634.492188 300.253906 634.730469 C 301.6875 640.667969 306.917969 651.996094 335.640625 681.664062 C 350.902344 697.429688 365.8125 711.066406 365.960938 711.203125 C 367.480469 712.589844 369.402344 713.285156 371.324219 713.285156 C 373.25 713.285156 375.171875 712.589844 376.691406 711.199219 C 376.839844 711.066406 391.742188 697.425781 406.996094 681.664062 C 435.703125 651.996094 440.941406 640.671875 442.382812 634.734375 C 442.441406 634.496094 442.484375 634.257812 442.539062 634.015625 L 481.101562 634.015625 L 448.558594 738.25 Z M 318.910156 610.539062 C 322.671875 604.367188 328.605469 600.039062 335.621094 598.339844 C 337.113281 597.976562 338.613281 597.796875 340.070312 597.796875 C 351.460938 597.796875 360.179688 608.816406 363.765625 619.742188 C 364.839844 623.007812 367.886719 625.214844 371.324219 625.214844 C 374.765625 625.214844 377.8125 623.007812 378.882812 619.742188 C 382.46875 608.816406 391.183594 597.796875 402.566406 597.796875 C 404.023438 597.796875 405.523438 597.976562 407.019531 598.339844 C 414.035156 600.039062 419.972656 604.367188 423.730469 610.535156 C 426.507812 615.089844 427.847656 620.242188 427.671875 625.453125 C 427.65625 625.65625 427.640625 625.855469 427.640625 626.0625 C 427.640625 626.066406 427.640625 626.070312 427.640625 626.074219 C 427.550781 627.714844 427.316406 629.355469 426.917969 630.980469 C 426.375 633.238281 422.496094 642.757812 395.613281 670.546875 C 386.207031 680.265625 376.929688 689.171875 371.324219 694.453125 C 365.714844 689.171875 356.433594 680.265625 347.023438 670.542969 C 320.132812 642.757812 316.265625 633.246094 315.71875 630.984375 C 314.015625 623.964844 315.148438 616.703125 318.910156 610.539062 Z M 558.953125 581.882812 L 503.277344 581.882812 C 502.988281 581.878906 502.703125 581.890625 502.417969 581.921875 C 502.390625 581.925781 502.359375 581.929688 502.332031 581.9375 C 502.105469 581.960938 501.878906 581.992188 501.65625 582.035156 C 501.527344 582.0625 501.402344 582.101562 501.273438 582.132812 C 501.152344 582.164062 501.035156 582.191406 500.914062 582.222656 C 500.757812 582.273438 500.605469 582.332031 500.453125 582.390625 C 500.367188 582.421875 500.28125 582.445312 500.195312 582.480469 C 500.042969 582.542969 499.894531 582.617188 499.746094 582.691406 C 499.664062 582.730469 499.578125 582.765625 499.5 582.8125 C 499.367188 582.882812 499.246094 582.957031 499.117188 583.035156 C 499.023438 583.089844 498.921875 583.144531 498.832031 583.210938 C 498.730469 583.273438 498.632812 583.351562 498.539062 583.417969 C 498.421875 583.503906 498.308594 583.582031 498.199219 583.671875 C 498.132812 583.730469 498.0625 583.792969 497.992188 583.855469 C 497.867188 583.964844 497.742188 584.074219 497.625 584.1875 C 497.570312 584.242188 497.523438 584.296875 497.476562 584.347656 C 497.347656 584.480469 497.222656 584.617188 497.105469 584.757812 C 497.058594 584.808594 497.019531 584.867188 496.980469 584.921875 C 496.863281 585.066406 496.75 585.214844 496.644531 585.367188 C 496.589844 585.449219 496.542969 585.53125 496.492188 585.617188 C 496.410156 585.75 496.324219 585.878906 496.25 586.015625 C 496.152344 586.1875 496.070312 586.367188 495.988281 586.542969 C 495.964844 586.601562 495.933594 586.65625 495.910156 586.710938 C 495.800781 586.96875 495.703125 587.234375 495.617188 587.507812 L 486.066406 618.105469 L 443.117188 618.105469 C 442.269531 612.558594 440.320312 607.1875 437.316406 602.253906 C 431.34375 592.457031 421.910156 585.570312 410.757812 582.875 C 408.039062 582.214844 405.285156 581.882812 402.566406 581.882812 C 390.402344 581.882812 379.148438 588.488281 371.324219 599.558594 C 363.496094 588.484375 352.242188 581.882812 340.070312 581.882812 C 337.355469 581.882812 334.597656 582.214844 331.875 582.875 C 320.730469 585.574219 311.300781 592.457031 305.328125 602.253906 C 302.316406 607.1875 300.371094 612.5625 299.519531 618.105469 L 251.375 618.105469 C 248.863281 618.105469 246.496094 619.292969 244.996094 621.3125 C 243.492188 623.328125 243.035156 625.9375 243.753906 628.34375 L 279.75 748.488281 C 280.757812 751.855469 283.859375 754.160156 287.371094 754.160156 L 443.59375 754.160156 L 432.597656 789.394531 L 307.246094 789.394531 C 302.855469 789.394531 299.289062 792.957031 299.289062 797.351562 C 299.289062 801.742188 302.855469 805.308594 307.246094 805.308594 L 438.445312 805.308594 C 441.925781 805.308594 445.003906 803.042969 446.039062 799.722656 L 461.964844 748.714844 C 461.996094 748.621094 462.023438 748.527344 462.054688 748.433594 L 509.078125 597.792969 L 558.953125 597.792969 C 563.347656 597.792969 566.910156 594.230469 566.910156 589.835938 C 566.910156 585.441406 563.347656 581.882812 558.953125 581.882812 " fill-opacity="1" fill-rule="nonzero"/></g><g clip-path="url(#8e37727ab8)"><path fill="#545454" d="M 333.660156 842.730469 C 333.523438 842.730469 333.402344 842.601562 333.402344 842.464844 C 333.402344 842.332031 333.527344 842.199219 333.660156 842.199219 C 333.800781 842.199219 333.925781 842.324219 333.925781 842.464844 C 333.925781 842.609375 333.800781 842.730469 333.660156 842.730469 Z M 333.660156 826.820312 C 325.03125 826.820312 318.015625 833.839844 318.015625 842.464844 C 318.015625 851.09375 325.03125 858.109375 333.660156 858.109375 C 342.289062 858.109375 349.316406 851.09375 349.316406 842.464844 C 349.316406 833.839844 342.289062 826.820312 333.660156 826.820312 " fill-opacity="1" fill-rule="nonzero"/></g><g clip-path="url(#73f0ca2234)"><path fill="#545454" d="M 408.96875 842.730469 C 408.832031 842.730469 408.703125 842.605469 408.703125 842.464844 C 408.703125 842.324219 408.832031 842.199219 408.96875 842.199219 C 409.113281 842.199219 409.238281 842.324219 409.238281 842.464844 C 409.238281 842.609375 409.113281 842.730469 408.96875 842.730469 Z M 408.96875 826.820312 C 400.34375 826.820312 393.324219 833.839844 393.324219 842.464844 C 393.324219 851.09375 400.34375 858.109375 408.96875 858.109375 C 417.597656 858.109375 424.613281 851.09375 424.613281 842.464844 C 424.613281 833.839844 417.597656 826.820312 408.96875 826.820312 " fill-opacity="1" fill-rule="nonzero"/></g></svg>