<svg xmlns="http://www.w3.org/2000/svg" xmlns:xlink="http://www.w3.org/1999/xlink" width="1080" zoomAndPan="magnify" viewBox="0 0 810 1439.999935" height="1920" preserveAspectRatio="xMidYMid meet" version="1.0"><defs><clipPath id="372661f7f6"><path d="M 81 396 L 729 396 L 729 1044 L 81 1044 Z M 81 396 " clip-rule="nonzero"/></clipPath><clipPath id="b0185e8965"><path d="M 405 396 C 226.058594 396 81 541.058594 81 720 C 81 898.941406 226.058594 1044 405 1044 C 583.941406 1044 729 898.941406 729 720 C 729 541.058594 583.941406 396 405 396 Z M 405 396 " clip-rule="nonzero"/></clipPath><clipPath id="81d7289651"><path d="M 131.960938 446.960938 L 678.039062 446.960938 L 678.039062 993.039062 L 131.960938 993.039062 Z M 131.960938 446.960938 " clip-rule="nonzero"/></clipPath><clipPath id="af87cdd5d6"><path d="M 405 446.960938 C 254.203125 446.960938 131.960938 569.203125 131.960938 720 C 131.960938 870.796875 254.203125 993.039062 405 993.039062 C 555.796875 993.039062 678.039062 870.796875 678.039062 720 C 678.039062 569.203125 555.796875 446.960938 405 446.960938 Z M 405 446.960938 " clip-rule="nonzero"/></clipPath><clipPath id="e3d4f8533c"><path d="M 180 557.027344 L 503.703125 557.027344 L 503.703125 781 L 180 781 Z M 180 557.027344 " clip-rule="nonzero"/></clipPath><clipPath id="84c5c6bcf7"><path d="M 254 801 L 287 801 L 287 833.027344 L 254 833.027344 Z M 254 801 " clip-rule="nonzero"/></clipPath><clipPath id="38e0318324"><path d="M 330 801 L 362 801 L 362 833.027344 L 330 833.027344 Z M 330 801 " clip-rule="nonzero"/></clipPath></defs><rect x="-81" width="972" fill="#ffffff" y="-143.999994" height="1727.999922" fill-opacity="1"/><rect x="-81" width="972" fill="#ffffff" y="-143.999994" height="1727.999922" fill-opacity="1"/><g clip-path="url(#372661f7f6)"><g clip-path="url(#b0185e8965)"><path fill="#eea796" d="M 81 396 L 729 396 L 729 1044 L 81 1044 Z M 81 396 " fill-opacity="1" fill-rule="nonzero"/></g></g><g clip-path="url(#81d7289651)"><g clip-path="url(#af87cdd5d6)"><path fill="#faf6f1" d="M 131.960938 446.960938 L 678.039062 446.960938 L 678.039062 993.039062 L 131.960938 993.039062 Z M 131.960938 446.960938 " fill-opacity="1" fill-rule="nonzero"/></g></g><g clip-path="url(#e3d4f8533c)"><path fill="#545454" d="M 229.996094 713.382812 L 198.769531 609.148438 L 236.800781 609.148438 C 236.855469 609.386719 236.898438 609.625 236.957031 609.863281 C 238.390625 615.800781 243.625 627.128906 272.34375 656.796875 C 287.605469 672.5625 302.515625 686.199219 302.664062 686.335938 C 304.183594 687.722656 306.105469 688.417969 308.027344 688.417969 C 309.953125 688.417969 311.875 687.722656 313.394531 686.332031 C 313.542969 686.199219 328.445312 672.5625 343.699219 656.796875 C 372.40625 627.128906 377.644531 615.804688 379.085938 609.867188 C 379.144531 609.628906 379.1875 609.390625 379.242188 609.148438 L 417.804688 609.148438 L 385.261719 713.382812 Z M 255.613281 585.671875 C 259.375 579.503906 265.308594 575.171875 272.324219 573.472656 C 273.816406 573.109375 275.316406 572.929688 276.773438 572.929688 C 288.164062 572.929688 296.882812 583.953125 300.46875 594.875 C 301.542969 598.140625 304.589844 600.351562 308.027344 600.351562 C 311.46875 600.351562 314.515625 598.140625 315.589844 594.875 C 319.171875 583.953125 327.886719 572.929688 339.269531 572.929688 C 340.726562 572.929688 342.226562 573.109375 343.722656 573.472656 C 350.738281 575.171875 356.675781 579.503906 360.433594 585.667969 C 363.210938 590.222656 364.550781 595.378906 364.375 600.589844 C 364.359375 600.789062 364.347656 600.988281 364.347656 601.195312 C 364.347656 601.199219 364.347656 601.203125 364.347656 601.210938 C 364.253906 602.847656 364.019531 604.488281 363.625 606.113281 C 363.078125 608.371094 359.199219 617.890625 332.316406 645.679688 C 322.910156 655.402344 313.632812 664.304688 308.027344 669.585938 C 302.417969 664.304688 293.136719 655.402344 283.726562 645.675781 C 256.835938 617.894531 252.96875 608.378906 252.421875 606.117188 C 250.71875 599.097656 251.851562 591.835938 255.613281 585.671875 Z M 495.65625 557.015625 L 439.980469 557.015625 C 439.691406 557.011719 439.40625 557.023438 439.121094 557.054688 C 439.09375 557.058594 439.0625 557.0625 439.035156 557.070312 C 438.808594 557.09375 438.582031 557.125 438.359375 557.171875 C 438.230469 557.195312 438.105469 557.234375 437.976562 557.265625 C 437.855469 557.296875 437.738281 557.324219 437.617188 557.355469 C 437.460938 557.40625 437.308594 557.464844 437.15625 557.523438 C 437.070312 557.554688 436.984375 557.578125 436.898438 557.617188 C 436.746094 557.679688 436.597656 557.75 436.449219 557.824219 C 436.367188 557.863281 436.28125 557.902344 436.203125 557.945312 C 436.074219 558.015625 435.949219 558.089844 435.820312 558.167969 C 435.726562 558.222656 435.625 558.277344 435.535156 558.34375 C 435.433594 558.410156 435.335938 558.484375 435.242188 558.554688 C 435.128906 558.636719 435.011719 558.714844 434.90625 558.804688 C 434.835938 558.863281 434.765625 558.925781 434.695312 558.988281 C 434.570312 559.097656 434.445312 559.207031 434.328125 559.324219 C 434.273438 559.375 434.226562 559.429688 434.179688 559.484375 C 434.050781 559.613281 433.925781 559.75 433.808594 559.890625 C 433.761719 559.945312 433.722656 560 433.683594 560.054688 C 433.566406 560.199219 433.453125 560.347656 433.347656 560.5 C 433.292969 560.582031 433.246094 560.667969 433.195312 560.75 C 433.113281 560.882812 433.027344 561.011719 432.953125 561.152344 C 432.855469 561.320312 432.777344 561.5 432.691406 561.675781 C 432.667969 561.734375 432.636719 561.789062 432.613281 561.84375 C 432.503906 562.101562 432.40625 562.367188 432.324219 562.640625 L 422.769531 593.238281 L 379.820312 593.238281 C 378.972656 587.695312 377.023438 582.320312 374.019531 577.386719 C 368.046875 567.589844 358.613281 560.707031 347.464844 558.007812 C 344.742188 557.347656 341.988281 557.015625 339.269531 557.015625 C 327.105469 557.015625 315.851562 563.621094 308.027344 574.691406 C 300.199219 563.617188 288.945312 557.015625 276.773438 557.015625 C 274.058594 557.015625 271.300781 557.347656 268.578125 558.007812 C 257.433594 560.707031 248.003906 567.589844 242.03125 577.386719 C 239.019531 582.320312 237.074219 587.695312 236.222656 593.238281 L 188.078125 593.238281 C 185.566406 593.238281 183.199219 594.425781 181.699219 596.445312 C 180.195312 598.460938 179.738281 601.070312 180.457031 603.476562 L 216.453125 723.625 C 217.460938 726.988281 220.5625 729.296875 224.074219 729.296875 L 380.296875 729.296875 L 369.300781 764.527344 L 243.949219 764.527344 C 239.558594 764.527344 235.992188 768.089844 235.992188 772.484375 C 235.992188 776.878906 239.558594 780.441406 243.949219 780.441406 L 375.148438 780.441406 C 378.632812 780.441406 381.707031 778.175781 382.742188 774.855469 L 398.667969 723.847656 C 398.699219 723.753906 398.726562 723.664062 398.757812 723.566406 L 445.78125 572.925781 L 495.65625 572.925781 C 500.054688 572.925781 503.613281 569.363281 503.613281 564.972656 C 503.613281 560.574219 500.054688 557.015625 495.65625 557.015625 " fill-opacity="1" fill-rule="nonzero"/></g><g clip-path="url(#84c5c6bcf7)"><path fill="#545454" d="M 270.363281 817.867188 C 270.226562 817.867188 270.105469 817.734375 270.105469 817.597656 C 270.105469 817.464844 270.230469 817.332031 270.363281 817.332031 C 270.503906 817.332031 270.628906 817.457031 270.628906 817.597656 C 270.628906 817.742188 270.503906 817.867188 270.363281 817.867188 Z M 270.363281 801.953125 C 261.734375 801.953125 254.71875 808.972656 254.71875 817.597656 C 254.71875 826.226562 261.734375 833.242188 270.363281 833.242188 C 278.996094 833.242188 286.019531 826.226562 286.019531 817.597656 C 286.019531 808.972656 278.996094 801.953125 270.363281 801.953125 " fill-opacity="1" fill-rule="nonzero"/></g><g clip-path="url(#38e0318324)"><path fill="#545454" d="M 345.671875 817.867188 C 345.535156 817.867188 345.40625 817.738281 345.40625 817.597656 C 345.40625 817.457031 345.535156 817.332031 345.671875 817.332031 C 345.816406 817.332031 345.941406 817.457031 345.941406 817.597656 C 345.941406 817.742188 345.820312 817.867188 345.671875 817.867188 Z M 345.671875 801.953125 C 337.046875 801.953125 330.027344 808.972656 330.027344 817.597656 C 330.027344 826.226562 337.046875 833.242188 345.671875 833.242188 C 354.300781 833.242188 361.316406 826.226562 361.316406 817.597656 C 361.316406 808.972656 354.300781 801.953125 345.671875 801.953125 " fill-opacity="1" fill-rule="nonzero"/></g></svg>