<svg xmlns="http://www.w3.org/2000/svg" xmlns:xlink="http://www.w3.org/1999/xlink" width="1080" zoomAndPan="magnify" viewBox="0 0 810 1439.999935" height="1920" preserveAspectRatio="xMidYMid meet" version="1.0"><defs><clipPath id="8713d6eee7"><path d="M 81 396 L 729 396 L 729 1044 L 81 1044 Z M 81 396 " clip-rule="nonzero"/></clipPath><clipPath id="d4d5747f34"><path d="M 405 396 C 226.058594 396 81 541.058594 81 720 C 81 898.941406 226.058594 1044 405 1044 C 583.941406 1044 729 898.941406 729 720 C 729 541.058594 583.941406 396 405 396 Z M 405 396 " clip-rule="nonzero"/></clipPath><clipPath id="3aae274b1b"><path d="M 131.960938 446.960938 L 678.039062 446.960938 L 678.039062 993.039062 L 131.960938 993.039062 Z M 131.960938 446.960938 " clip-rule="nonzero"/></clipPath><clipPath id="67c85420d7"><path d="M 405 446.960938 C 254.203125 446.960938 131.960938 569.203125 131.960938 720 C 131.960938 870.796875 254.203125 993.039062 405 993.039062 C 555.796875 993.039062 678.039062 870.796875 678.039062 720 C 678.039062 569.203125 555.796875 446.960938 405 446.960938 Z M 405 446.960938 " clip-rule="nonzero"/></clipPath><clipPath id="66ded46cac"><path d="M 244 522.4375 L 567 522.4375 L 567 917.6875 L 244 917.6875 Z M 244 522.4375 " clip-rule="nonzero"/></clipPath></defs><g clip-path="url(#8713d6eee7)"><g clip-path="url(#d4d5747f34)"><path fill="#eea796" d="M 81 396 L 729 396 L 729 1044 L 81 1044 Z M 81 396 " fill-opacity="1" fill-rule="nonzero"/></g></g><g clip-path="url(#3aae274b1b)"><g clip-path="url(#67c85420d7)"><path fill="#faf6f1" d="M 131.960938 446.960938 L 678.039062 446.960938 L 678.039062 993.039062 L 131.960938 993.039062 Z M 131.960938 446.960938 " fill-opacity="1" fill-rule="nonzero"/></g></g><g clip-path="url(#66ded46cac)"><path fill="#545454" d="M 566.578125 845.894531 C 566.324219 841.410156 565.0625 835.914062 564.863281 833.042969 L 561.890625 790.003906 C 560.125 766.164062 557.402344 742.527344 554.078125 718.992188 C 549.136719 683.8125 542.941406 648.785156 536.890625 613.660156 L 528.828125 549.804688 L 527.566406 534.28125 C 527.519531 533.675781 527.46875 530.300781 527.214844 528.941406 C 526.558594 525.765625 524.542969 524.304688 523.535156 523.75 C 522.226562 522.992188 519.351562 522.339844 515.722656 522.890625 C 511.390625 523.597656 504.433594 525.816406 502.722656 526.167969 L 450.863281 538.363281 C 424.453125 545.015625 398.246094 552.425781 372.140625 560.339844 C 333.132812 572.132812 294.375 584.933594 255.722656 597.734375 C 255.265625 597.886719 254.8125 598.085938 254.410156 598.339844 C 250.984375 599.042969 248.5625 602.167969 248.765625 605.695312 C 248.664062 606.300781 248.664062 606.90625 248.714844 607.511719 C 249.320312 612.804688 249.773438 618.144531 250.328125 623.4375 C 249.875 623.738281 249.371094 623.992188 248.96875 624.445312 C 243.472656 630.441406 243.675781 635.785156 245.539062 639.5625 C 246.75 642.035156 249.269531 644.25 252.597656 645.761719 C 253.152344 651.558594 253.605469 657.304688 254.109375 663.101562 C 246.953125 668.390625 245.894531 675.09375 247.65625 679.78125 C 248.867188 682.957031 251.738281 685.980469 256.175781 687.390625 C 256.375 689.910156 256.628906 692.433594 256.828125 694.953125 C 251.085938 699.132812 247.707031 705.234375 248.3125 710.222656 C 248.816406 714.304688 251.335938 718.839844 258.746094 721.5625 L 259.046875 721.613281 C 259.300781 724.636719 259.550781 727.660156 259.804688 730.683594 C 255.265625 734.414062 251.789062 739.753906 251.636719 744.59375 C 251.488281 749.382812 253.554688 754.472656 261.011719 757.796875 L 262.324219 758.152344 C 262.675781 762.03125 263.027344 765.914062 263.433594 769.742188 C 263.433594 769.792969 263.433594 769.894531 263.433594 769.945312 C 257.988281 773.976562 255.21875 779.671875 255.265625 784.457031 C 255.367188 789.851562 258.339844 795.445312 266.457031 797.160156 C 266.757812 799.628906 267.011719 802.097656 267.363281 804.566406 C 261.464844 809.40625 260.003906 816.109375 261.71875 821.703125 C 263.027344 825.886719 266.203125 829.714844 271.09375 831.582031 C 271.496094 834.203125 271.847656 836.773438 272.25 839.390625 L 272.453125 840.753906 C 267.917969 845.640625 265.347656 852.09375 266.457031 857.234375 C 267.3125 861.214844 269.933594 865.144531 275.980469 867.515625 L 276.988281 875.074219 C 270.539062 880.214844 270.539062 886.617188 272.957031 891.152344 C 274.21875 893.46875 276.484375 895.585938 279.609375 897.046875 C 279.8125 900.878906 280.113281 906.722656 280.667969 909.546875 C 281.574219 914.132812 284.597656 915.996094 285.808594 916.453125 C 287.773438 917.207031 290.648438 917.460938 294.023438 917.15625 C 300.726562 916.5 310.402344 913.375 314.484375 912.722656 L 378.691406 903.601562 C 400.714844 900.828125 422.789062 898.003906 444.714844 894.527344 C 459.429688 892.210938 474.046875 889.640625 488.660156 886.664062 L 513.660156 881.070312 C 513.910156 881.019531 518.546875 879.964844 520.359375 879.507812 C 526.257812 877.996094 526.460938 871.949219 526.410156 871.699219 L 525.855469 867.566406 L 550.902344 861.113281 C 551.910156 860.863281 558.261719 859.855469 560.679688 858.898438 C 563.601562 857.738281 564.914062 855.773438 565.417969 854.664062 C 566.324219 852.496094 566.777344 849.371094 566.578125 845.894531 Z M 510.230469 867.261719 L 485.839844 872.707031 C 471.476562 875.679688 457.0625 878.199219 442.597656 880.46875 C 420.773438 883.894531 398.851562 886.714844 376.980469 889.488281 L 312.21875 898.710938 L 294.425781 902.390625 C 294.324219 901.03125 294.226562 899.566406 294.125 898.105469 C 298.308594 897.199219 302.136719 895.535156 305.664062 893.21875 C 310.101562 890.34375 313.980469 886.566406 317.359375 882.382812 C 319.828125 879.308594 319.324219 874.824219 316.25 872.351562 C 313.175781 869.882812 308.6875 870.386719 306.21875 873.460938 C 303.851562 876.433594 301.078125 879.15625 297.953125 881.222656 C 296.292969 882.28125 294.527344 883.136719 292.613281 883.691406 L 290.597656 868.421875 C 292.359375 868.019531 294.074219 867.464844 295.738281 866.757812 C 300.625 864.640625 305.011719 861.265625 308.738281 857.535156 C 311.5625 854.765625 311.5625 850.226562 308.839844 847.457031 C 306.070312 844.632812 301.53125 844.632812 298.761719 847.355469 C 296.644531 849.472656 294.226562 851.488281 291.554688 852.898438 C 290.648438 853.402344 289.738281 853.757812 288.78125 854.109375 L 286.566406 837.125 C 286.261719 835.261719 286.011719 833.445312 285.757812 831.582031 C 287.320312 831.078125 288.882812 830.421875 290.34375 829.664062 C 295.433594 826.894531 299.921875 822.507812 303.195312 818.074219 C 305.566406 814.898438 304.859375 810.414062 301.734375 808.09375 C 298.558594 805.726562 294.125 806.433594 291.753906 809.558594 C 289.941406 811.976562 287.671875 814.445312 285.003906 816.210938 C 284.546875 816.511719 284.09375 816.765625 283.640625 817.015625 C 282.683594 810.160156 281.828125 803.308594 280.96875 796.453125 C 283.238281 795.847656 285.507812 795.09375 287.621094 794.085938 C 292.664062 791.664062 297.199219 788.1875 300.777344 784.003906 C 303.347656 781.03125 303.042969 776.496094 300.070312 773.925781 C 297.097656 771.355469 292.5625 771.65625 289.992188 774.632812 C 287.671875 777.351562 284.699219 779.621094 281.472656 781.183594 C 280.769531 781.535156 280.011719 781.839844 279.308594 782.089844 C 278.804688 777.453125 278.300781 772.816406 277.796875 768.179688 C 277.441406 764.902344 277.191406 761.679688 276.886719 758.402344 C 278.398438 758 279.863281 757.496094 281.273438 756.839844 C 286.515625 754.472656 291.300781 750.589844 295.332031 746.863281 C 298.207031 744.191406 298.359375 739.65625 295.6875 736.78125 C 293.015625 733.910156 288.480469 733.757812 285.605469 736.429688 C 283.085938 738.746094 280.265625 741.21875 277.089844 742.980469 C 276.585938 743.285156 276.03125 743.535156 275.527344 743.789062 C 274.871094 736.53125 274.167969 729.273438 273.5625 721.964844 C 275.226562 721.511719 276.886719 721.007812 278.5 720.300781 C 283.84375 717.984375 288.730469 714.203125 292.460938 710.171875 C 295.132812 707.300781 294.980469 702.761719 292.058594 700.09375 C 289.183594 697.421875 284.648438 697.574219 281.976562 700.496094 C 279.910156 702.761719 277.292969 704.878906 274.367188 706.441406 C 273.714844 706.796875 273.007812 707.148438 272.300781 707.398438 C 271.746094 700.496094 271.144531 693.640625 270.589844 686.738281 C 272.351562 686.132812 274.066406 685.375 275.679688 684.46875 C 280.214844 681.898438 284.144531 678.167969 287.621094 674.289062 C 290.242188 671.367188 290.042969 666.828125 287.117188 664.207031 C 284.195312 661.589844 279.660156 661.789062 277.039062 664.710938 C 274.921875 667.082031 272.605469 669.398438 270.035156 671.164062 C 269.78125 671.316406 269.53125 671.464844 269.277344 671.617188 C 268.574219 663.453125 267.867188 655.339844 267.160156 647.175781 C 269.679688 646.671875 272.101562 645.863281 274.367188 644.703125 C 279.054688 642.335938 283.136719 638.605469 286.464844 634.574219 C 288.984375 631.550781 288.53125 627.015625 285.507812 624.546875 C 282.480469 622.027344 277.945312 622.480469 275.476562 625.503906 C 273.714844 627.671875 271.597656 629.738281 269.226562 631.25 C 268.167969 631.902344 267.011719 632.457031 265.800781 632.859375 C 265.09375 625.753906 264.488281 618.699219 263.734375 611.59375 C 308.589844 607.359375 352.9375 598.992188 397.691406 593.703125 C 409.335938 592.339844 420.976562 591.132812 432.71875 590.324219 L 475.757812 586.796875 C 476.667969 586.746094 479.992188 586.34375 482.816406 585.992188 L 482.816406 586.847656 L 484.929688 609.929688 L 495.816406 706.542969 L 504.183594 811.019531 L 511.542969 866.808594 Z M 524.039062 853.300781 L 518.292969 809.808594 L 509.878906 704.929688 L 498.992188 608.417969 L 496.925781 585.992188 C 496.824219 584.78125 496.925781 579.792969 496.371094 577.777344 C 495.765625 575.507812 494.558594 574.148438 493.601562 573.339844 C 492.339844 572.332031 489.769531 571.273438 486.292969 571.324219 C 482.460938 571.375 476.363281 572.585938 474.648438 572.734375 L 431.558594 576.265625 C 419.617188 577.121094 407.722656 578.28125 395.878906 579.691406 C 393.003906 580.042969 390.082031 580.398438 387.210938 580.800781 L 454.289062 568.148438 L 491.078125 561.949219 C 493.144531 561.597656 496.625 560.488281 499.796875 559.835938 C 500.65625 559.683594 501.511719 559.480469 502.21875 559.429688 C 502.570312 563.664062 502.621094 571.578125 502.671875 572.734375 L 506.957031 625.351562 C 510.03125 656.195312 514.011719 686.835938 518.394531 717.480469 C 524.746094 761.527344 532.15625 805.476562 539.460938 849.421875 Z M 547.425781 847.253906 L 546.015625 847.609375 C 538.707031 803.914062 531.398438 760.21875 525.046875 716.421875 C 520.613281 685.878906 516.683594 655.289062 513.609375 624.597656 L 509.324219 572.332031 C 509.273438 571.023438 509.222656 561.246094 508.71875 557.363281 C 508.367188 554.441406 506.550781 553.230469 505.996094 553.03125 C 504.484375 552.578125 502.367188 552.527344 500.050781 552.878906 C 496.472656 553.433594 492.289062 554.84375 489.871094 555.296875 L 453.128906 561.496094 L 359.136719 579.289062 C 364.882812 577.523438 370.578125 575.710938 376.324219 573.996094 C 402.175781 566.183594 428.183594 558.828125 454.390625 552.222656 L 505.445312 540.179688 C 506.402344 539.976562 510.230469 539.019531 513.558594 538.214844 L 514.566406 550.660156 C 515.269531 561.648438 516.378906 572.636719 517.789062 583.570312 C 519.203125 594.457031 520.914062 605.292969 522.78125 616.078125 C 528.828125 651.054688 534.976562 685.878906 539.914062 720.957031 C 543.191406 744.191406 545.863281 767.574219 547.625 791.0625 L 550.601562 834.203125 L 552.0625 846.296875 Z M 547.425781 847.253906 " fill-opacity="1" fill-rule="evenodd"/></g><path fill="#545454" d="M 473.945312 669.652344 C 473.792969 664.710938 474.195312 658.816406 473.792969 653.324219 C 473.59375 650.652344 473.238281 648.132812 472.582031 645.8125 C 472.433594 645.257812 471.574219 643.644531 469.257812 643.191406 C 467.242188 642.789062 462.152344 642.539062 461.394531 642.488281 L 433.625 641.53125 C 418.003906 641.628906 402.378906 642.285156 386.707031 643.292969 C 363.320312 644.753906 339.9375 646.871094 316.703125 648.636719 C 314.886719 648.785156 313.476562 650.398438 313.628906 652.214844 L 313.679688 652.414062 L 313.679688 652.566406 C 313.425781 667.785156 313.324219 682.957031 313.78125 698.078125 C 314.082031 708.207031 314.6875 718.335938 315.644531 728.464844 C 316.046875 732.902344 315.746094 740.714844 316.449219 747.113281 C 316.855469 750.742188 317.660156 753.917969 318.96875 756.085938 C 319.273438 756.589844 320.28125 757.695312 322.296875 757.898438 C 324.3125 758.101562 329.453125 757.695312 329.90625 757.695312 L 355.15625 757.292969 C 372.746094 757.144531 390.132812 757.042969 407.519531 756.285156 C 419.160156 755.730469 430.753906 754.875 442.496094 753.464844 L 464.671875 749.785156 C 465.578125 749.582031 468.703125 749.382812 470.566406 748.878906 C 472.078125 748.472656 473.085938 747.71875 473.59375 747.164062 C 474.601562 745.902344 475.355469 743.585938 475.507812 740.5625 C 475.910156 734.210938 474.347656 724.132812 474.347656 720.703125 Z M 468.601562 742.425781 C 467.394531 742.628906 463.964844 743.132812 463.261719 743.285156 L 441.640625 746.910156 C 430.097656 748.324219 418.65625 749.128906 407.167969 749.683594 C 389.878906 750.492188 372.542969 750.539062 355.054688 750.691406 L 329.804688 751.09375 L 324.011719 751.296875 C 323.507812 749.9375 323.253906 748.222656 323.050781 746.40625 C 322.296875 740.109375 322.648438 732.347656 322.246094 727.910156 C 321.289062 717.933594 320.734375 707.902344 320.382812 697.925781 C 319.929688 683.664062 319.976562 669.398438 320.230469 655.085938 C 342.40625 653.375 364.730469 651.355469 387.058594 649.996094 C 402.582031 649.039062 418.101562 648.332031 433.574219 648.28125 L 460.691406 649.191406 L 466.585938 649.695312 C 466.988281 651.710938 467.140625 653.878906 467.242188 656.09375 C 467.394531 660.832031 467.140625 665.769531 467.292969 669.953125 L 467.59375 720.855469 C 467.59375 723.476562 468.5 729.929688 468.753906 735.671875 C 468.90625 738.394531 469.15625 741.066406 468.601562 742.425781 Z M 468.601562 742.425781 " fill-opacity="1" fill-rule="evenodd"/></svg>