<svg xmlns="http://www.w3.org/2000/svg" xmlns:xlink="http://www.w3.org/1999/xlink" width="1080" zoomAndPan="magnify" viewBox="0 0 810 1439.999935" height="1920" preserveAspectRatio="xMidYMid meet" version="1.0"><defs><clipPath id="f75c8f81ca"><path d="M 81 396 L 729 396 L 729 1044 L 81 1044 Z M 81 396 " clip-rule="nonzero"/></clipPath><clipPath id="9796eb97bb"><path d="M 405 396 C 226.058594 396 81 541.058594 81 720 C 81 898.941406 226.058594 1044 405 1044 C 583.941406 1044 729 898.941406 729 720 C 729 541.058594 583.941406 396 405 396 Z M 405 396 " clip-rule="nonzero"/></clipPath><clipPath id="088c08560b"><path d="M 131.960938 446.960938 L 678.039062 446.960938 L 678.039062 993.039062 L 131.960938 993.039062 Z M 131.960938 446.960938 " clip-rule="nonzero"/></clipPath><clipPath id="cb7131d5eb"><path d="M 405 446.960938 C 254.203125 446.960938 131.960938 569.203125 131.960938 720 C 131.960938 870.796875 254.203125 993.039062 405 993.039062 C 555.796875 993.039062 678.039062 870.796875 678.039062 720 C 678.039062 569.203125 555.796875 446.960938 405 446.960938 Z M 405 446.960938 " clip-rule="nonzero"/></clipPath><clipPath id="6b2d3073a1"><path d="M 419 614 L 614.539062 614 L 614.539062 849.515625 L 419 849.515625 Z M 419 614 " clip-rule="nonzero"/></clipPath><clipPath id="669b87f0b2"><path d="M 195.289062 614 L 391 614 L 391 849.515625 L 195.289062 849.515625 Z M 195.289062 614 " clip-rule="nonzero"/></clipPath><clipPath id="9af6ea2961"><path d="M 322 590.765625 L 487 590.765625 L 487 808 L 322 808 Z M 322 590.765625 " clip-rule="nonzero"/></clipPath></defs><g clip-path="url(#f75c8f81ca)"><g clip-path="url(#9796eb97bb)"><path fill="#eea796" d="M 81 396 L 729 396 L 729 1044 L 81 1044 Z M 81 396 " fill-opacity="1" fill-rule="nonzero"/></g></g><g clip-path="url(#088c08560b)"><g clip-path="url(#cb7131d5eb)"><path fill="#faf6f1" d="M 131.960938 446.960938 L 678.039062 446.960938 L 678.039062 993.039062 L 131.960938 993.039062 Z M 131.960938 446.960938 " fill-opacity="1" fill-rule="nonzero"/></g></g><g clip-path="url(#6b2d3073a1)"><path fill="#545454" d="M 613.046875 640.230469 C 611.875 638.53125 610.0625 637.386719 608 637.023438 L 479.183594 614.0625 C 479.460938 619.390625 479.851562 624.71875 479.90625 630.078125 L 597.5625 651.058594 L 565.226562 832.382812 L 436.859375 809.503906 L 438.03125 802.890625 L 422.15625 802.890625 L 420.089844 814.441406 C 419.335938 818.683594 422.15625 822.757812 426.421875 823.507812 L 570.164062 849.121094 C 570.613281 849.207031 571.085938 849.234375 571.53125 849.234375 C 573.121094 849.234375 574.683594 848.757812 575.996094 847.839844 C 577.699219 846.667969 578.84375 844.855469 579.207031 842.789062 L 614.332031 646.0625 C 614.695312 644.027344 614.21875 641.933594 613.046875 640.230469 Z M 613.046875 640.230469 " fill-opacity="1" fill-rule="nonzero"/></g><path fill="#545454" d="M 558.140625 703.957031 C 556.019531 699.4375 552.53125 695.308594 547.761719 691.707031 C 543.019531 688.109375 537.269531 685.683594 530.660156 684.511719 C 525.246094 683.535156 519.890625 683.617188 514.753906 684.675781 C 509.566406 685.765625 504.765625 687.886719 500.5 690.984375 C 496.230469 694.078125 492.628906 698.125 489.785156 702.980469 C 486.96875 707.777344 484.957031 713.5 483.8125 719.914062 C 483.117188 723.878906 482.808594 727.726562 482.921875 731.382812 C 483.03125 735.09375 483.589844 738.691406 484.539062 742.125 C 485.488281 745.554688 486.855469 748.820312 488.558594 751.777344 L 488.585938 751.804688 C 490.539062 755.125 492.855469 757.945312 495.503906 760.257812 C 498.128906 762.546875 501.222656 764.472656 504.65625 765.921875 C 508.003906 767.347656 511.824219 768.460938 516.039062 769.214844 C 518.773438 769.71875 521.421875 769.941406 523.960938 769.941406 C 526.667969 769.941406 529.207031 769.660156 531.636719 769.105469 C 536.324219 768.015625 540.425781 766.203125 543.800781 763.691406 C 547.121094 761.207031 549.769531 758.5 551.667969 755.574219 C 553.59375 752.613281 554.820312 749.65625 555.324219 746.8125 C 555.824219 744.023438 555.238281 741.34375 553.621094 739.082031 C 552.03125 736.851562 549.742188 735.429688 547.0625 734.953125 C 543.019531 734.230469 540.507812 735.597656 539.140625 736.878906 C 537.691406 738.21875 536.351562 739.976562 535.179688 742.179688 C 533.253906 745.5 530.964844 747.730469 528.175781 749.070312 C 525.414062 750.382812 522.289062 750.71875 518.632812 750.046875 C 515.230469 749.433594 512.523438 748.179688 510.347656 746.171875 C 508.199219 744.1875 506.777344 741.539062 505.96875 738.050781 C 505.128906 734.367188 505.1875 729.765625 506.132812 724.4375 C 507.558594 716.511719 510.265625 710.707031 514.199219 707.164062 C 517.9375 703.816406 522.261719 702.617188 527.449219 703.539062 C 530.6875 704.125 533.167969 705.296875 535.011719 707.109375 C 536.9375 709.035156 538.5 711.769531 539.644531 715.285156 C 540.5625 718.15625 541.511719 720.222656 542.574219 721.644531 C 543.9375 723.488281 546.058594 724.6875 548.933594 725.1875 C 551.640625 725.664062 554.261719 725.023438 556.496094 723.320312 C 558.644531 721.671875 560.039062 719.441406 560.511719 716.847656 C 561.097656 712.96875 560.34375 708.617188 558.140625 703.957031 Z M 558.140625 703.957031 " fill-opacity="1" fill-rule="nonzero"/><g clip-path="url(#669b87f0b2)"><path fill="#545454" d="M 387.894531 801.1875 L 372.015625 801.1875 L 373.496094 809.476562 L 245.125 832.355469 L 212.816406 651.03125 L 328.742188 630.355469 L 328.742188 614.480469 L 202.382812 636.996094 C 198.140625 637.75 195.296875 641.824219 196.050781 646.0625 L 231.121094 842.789062 C 231.484375 844.824219 232.65625 846.640625 234.328125 847.839844 C 235.640625 848.757812 237.203125 849.234375 238.792969 849.234375 C 239.238281 849.234375 239.714844 849.207031 240.160156 849.121094 L 383.902344 823.507812 C 388.144531 822.757812 390.988281 818.683594 390.238281 814.441406 Z M 387.894531 801.1875 " fill-opacity="1" fill-rule="nonzero"/></g><path fill="#545454" d="M 338.257812 751.304688 C 337.867188 749.128906 336.527344 746.28125 334.015625 742.402344 L 305.78125 697.457031 C 304.441406 695.195312 303.300781 693.355469 302.433594 691.988281 C 301.457031 690.425781 300.3125 689.003906 299.03125 687.71875 C 297.550781 686.238281 295.765625 685.125 293.703125 684.398438 C 291.554688 683.644531 289.097656 683.503906 286.390625 684.007812 C 283.710938 684.480469 281.480469 685.457031 279.722656 686.910156 C 278.019531 688.304688 276.738281 690.007812 275.871094 691.960938 C 275.121094 693.632812 274.535156 695.671875 274.058594 698.015625 L 273.863281 698.933594 C 273.527344 700.636719 273.222656 702.144531 272.972656 703.398438 L 262.453125 755.628906 C 261.976562 757.832031 261.699219 759.507812 261.53125 760.761719 C 261.335938 762.269531 261.363281 763.71875 261.617188 765.085938 C 262.089844 767.792969 263.679688 770.109375 266.191406 771.78125 C 268.089844 773.039062 270.125 773.679688 272.246094 773.679688 C 272.886719 773.679688 273.527344 773.625 274.199219 773.511719 C 278.410156 772.757812 280.363281 770.527344 281.230469 768.796875 C 282.152344 766.957031 282.960938 764.027344 283.796875 759.589844 L 285.21875 751.722656 L 310.972656 747.117188 L 314.988281 753.84375 L 315.046875 753.925781 C 315.742188 755.015625 316.578125 756.269531 317.527344 757.722656 C 318.644531 759.394531 319.648438 760.621094 320.597656 761.460938 C 321.683594 762.4375 322.96875 763.132812 324.390625 763.550781 C 325.84375 763.96875 327.460938 764.054688 329.191406 763.746094 C 332.148438 763.21875 334.601562 761.65625 336.332031 759.171875 C 338.0625 756.660156 338.730469 753.953125 338.257812 751.304688 Z M 301.066406 729.933594 L 288.484375 732.164062 L 291.609375 713.667969 Z M 301.066406 729.933594 " fill-opacity="1" fill-rule="nonzero"/><g clip-path="url(#9af6ea2961)"><path fill="#545454" d="M 475.917969 807.96875 C 475.890625 807.96875 475.863281 807.96875 475.835938 807.96875 L 329.832031 806.183594 C 325.507812 806.128906 322.074219 802.585938 322.105469 798.289062 L 324.558594 598.492188 C 324.585938 596.429688 325.425781 594.449219 326.902344 592.996094 C 328.382812 591.546875 330.390625 590.765625 332.453125 590.765625 L 478.457031 592.550781 C 482.78125 592.605469 486.214844 596.148438 486.1875 600.445312 L 483.730469 800.242188 C 483.703125 802.304688 482.867188 804.285156 481.386719 805.738281 C 479.9375 807.1875 477.984375 807.96875 475.917969 807.96875 Z M 337.839844 790.671875 L 468.21875 792.261719 L 470.476562 608.089844 L 340.097656 606.5 Z M 337.839844 790.671875 " fill-opacity="1" fill-rule="nonzero"/></g><path fill="#545454" d="M 431.835938 692.488281 C 436.800781 688.472656 439.425781 683.003906 439.507812 676.363281 C 439.535156 673.742188 439.144531 671.203125 438.28125 668.800781 C 437.445312 666.429688 436.1875 664.199219 434.570312 662.21875 C 432.953125 660.265625 431.054688 658.589844 428.960938 657.308594 C 426.480469 655.773438 423.660156 654.710938 420.5625 654.125 C 417.71875 653.597656 414.34375 653.316406 410.519531 653.289062 L 385.800781 652.984375 C 381.558594 652.925781 378.296875 653.988281 376.117188 656.109375 C 373.941406 658.226562 372.796875 661.492188 372.742188 665.816406 L 372.046875 723.207031 C 371.988281 727.421875 373.023438 730.683594 375.058594 732.890625 C 377.152344 735.148438 380.414062 736.320312 384.769531 736.347656 L 408.09375 736.628906 C 408.59375 736.628906 409.070312 736.628906 409.542969 736.628906 C 413.113281 736.628906 416.351562 736.460938 419.140625 736.125 C 422.460938 735.734375 425.472656 734.980469 428.097656 733.949219 L 428.152344 733.921875 C 432.535156 732.082031 436.046875 729.121094 438.671875 725.160156 C 441.265625 721.226562 442.605469 716.707031 442.660156 711.769531 C 442.773438 701.835938 437.695312 695.976562 431.835938 692.488281 Z M 419.949219 710.402344 C 419.894531 713.863281 418.5 715.257812 417.410156 715.980469 C 415.402344 717.40625 412.136719 718.074219 407.675781 718.019531 L 394.589844 717.851562 L 394.785156 702.589844 L 407.367188 702.757812 C 411.972656 702.8125 415.515625 703.566406 417.578125 704.933594 C 418.609375 705.628906 420.007812 706.941406 419.949219 710.402344 Z M 395.007812 684.511719 L 395.175781 671.816406 L 404.214844 671.925781 C 410.546875 672.011719 413.726562 672.902344 415.261719 673.628906 C 415.875 673.9375 417.328125 674.605469 417.273438 678.148438 C 417.242188 679.320312 416.992188 680.324219 416.433594 681.246094 L 416.351562 681.359375 C 415.652344 682.640625 414.703125 683.421875 413.449219 683.839844 C 412.25 684.230469 409.960938 684.707031 405.664062 684.648438 Z M 395.007812 684.511719 " fill-opacity="1" fill-rule="nonzero"/></svg>