<svg xmlns="http://www.w3.org/2000/svg" xmlns:xlink="http://www.w3.org/1999/xlink" width="1080" zoomAndPan="magnify" viewBox="0 0 810 1439.999935" height="1920" preserveAspectRatio="xMidYMid meet" version="1.0"><defs><clipPath id="04fe0fd360"><path d="M 81 396 L 729 396 L 729 1044 L 81 1044 Z M 81 396 " clip-rule="nonzero"/></clipPath><clipPath id="29db810698"><path d="M 405 396 C 226.058594 396 81 541.058594 81 720 C 81 898.941406 226.058594 1044 405 1044 C 583.941406 1044 729 898.941406 729 720 C 729 541.058594 583.941406 396 405 396 Z M 405 396 " clip-rule="nonzero"/></clipPath><clipPath id="4b453d9060"><path d="M 131.960938 446.960938 L 678.039062 446.960938 L 678.039062 993.039062 L 131.960938 993.039062 Z M 131.960938 446.960938 " clip-rule="nonzero"/></clipPath><clipPath id="daafd78d99"><path d="M 405 446.960938 C 254.203125 446.960938 131.960938 569.203125 131.960938 720 C 131.960938 870.796875 254.203125 993.039062 405 993.039062 C 555.796875 993.039062 678.039062 870.796875 678.039062 720 C 678.039062 569.203125 555.796875 446.960938 405 446.960938 Z M 405 446.960938 " clip-rule="nonzero"/></clipPath><clipPath id="d6ebe88549"><path d="M 246 552.804688 L 510 552.804688 L 510 886 L 246 886 Z M 246 552.804688 " clip-rule="nonzero"/></clipPath></defs><g clip-path="url(#04fe0fd360)"><g clip-path="url(#29db810698)"><path fill="#eea796" d="M 81 396 L 729 396 L 729 1044 L 81 1044 Z M 81 396 " fill-opacity="1" fill-rule="nonzero"/></g></g><g clip-path="url(#4b453d9060)"><g clip-path="url(#daafd78d99)"><path fill="#faf6f1" d="M 131.960938 446.960938 L 678.039062 446.960938 L 678.039062 993.039062 L 131.960938 993.039062 Z M 131.960938 446.960938 " fill-opacity="1" fill-rule="nonzero"/></g></g><path fill="#545454" d="M 544.761719 559.449219 C 549.46875 558.625 554.246094 561.457031 556.902344 565.203125 C 559.324219 568.617188 558.945312 572.695312 558.789062 576.652344 C 558.777344 576.988281 558.542969 577.640625 558.90625 577.742188 C 563.484375 579.054688 568.5 582.070312 570.933594 586.222656 L 571.03125 586.390625 C 574.511719 591.964844 573.191406 596.421875 573.90625 602.199219 L 580.585938 602.195312 C 582.414062 602.195312 584.949219 601.894531 586.578125 602.796875 L 586.800781 602.925781 C 589.351562 604.375 589.894531 606.386719 589.894531 609.089844 L 589.882812 698.605469 C 589.660156 703.652344 584.796875 707.984375 580.246094 705.441406 L 580.078125 705.347656 C 579.300781 704.925781 578.582031 704.355469 578.085938 703.613281 L 577.984375 703.460938 C 576.152344 700.871094 576.59375 698.066406 576.589844 695.050781 L 576.488281 619.128906 C 576.386719 616.863281 576.554688 616.347656 574.164062 616.191406 C 573.566406 617.050781 573.898438 655.738281 573.898438 660.542969 L 573.890625 804.613281 L 573.863281 816.546875 C 573.808594 830.519531 566.945312 843.957031 561.066406 856.4375 C 558.761719 861.332031 556.792969 866 553.746094 870.476562 L 553.574219 870.734375 C 551.097656 874.21875 554.945312 881.59375 549.617188 884.800781 C 546.851562 886.464844 542.960938 885.460938 540.828125 883.214844 C 536.871094 879.054688 540.148438 873.328125 538.304688 870.109375 C 531.175781 857.675781 523.625 839.21875 520.191406 825.742188 L 519.816406 823.875 C 519.1875 819.339844 519.5 814.460938 519.496094 809.878906 L 519.476562 597.042969 C 519.488281 588.679688 523.421875 582.246094 531.46875 578.949219 C 534.542969 577.6875 534.710938 579.015625 534.460938 575.773438 C 533.890625 568.285156 536.160156 560.523438 544.761719 559.449219 Z M 555.078125 591.328125 L 554.824219 591.367188 C 553.042969 591.621094 551.191406 591.539062 549.394531 591.535156 L 541.910156 591.515625 C 539.160156 591.511719 533.621094 591.488281 533.183594 595.476562 L 533.148438 595.730469 C 532.996094 597.078125 533.078125 598.496094 533.074219 599.855469 L 533.082031 707.132812 L 537.835938 707.210938 L 560.277344 707.210938 L 560.136719 605.753906 C 560.128906 601.980469 561.773438 590.707031 555.378906 591.296875 Z M 533.070312 720.914062 L 533.378906 818.640625 C 535.882812 818.480469 538.4375 818.578125 540.949219 818.578125 L 558.28125 818.578125 C 558.847656 818.578125 559.566406 818.671875 560.121094 818.3125 L 560.160156 721.082031 Z M 551.90625 832.363281 L 536.695312 832.367188 L 545.007812 853.351562 L 546.511719 857.214844 L 555.234375 835.273438 C 555.632812 834.230469 555.929688 833.203125 556.515625 832.238281 Z M 551.90625 832.363281 " fill-opacity="1" fill-rule="nonzero"/><g clip-path="url(#d6ebe88549)"><path fill="#545454" d="M 295.539062 552.925781 C 297.945312 552.78125 300.425781 552.914062 302.839844 552.914062 L 474.34375 552.898438 C 479.515625 552.898438 484.390625 552.824219 489.382812 554.414062 C 497.886719 557.121094 505.484375 564.683594 507.835938 573.394531 C 509.589844 579.875 508.933594 587.335938 508.933594 594.003906 L 508.882812 857.914062 C 508.664062 862.339844 507.640625 866.851562 505.351562 870.683594 L 503.574219 873.5 C 493.90625 887.15625 480.804688 885.640625 466.21875 885.628906 L 325.839844 885.621094 L 296.546875 885.632812 C 293.957031 885.628906 291.609375 885.425781 289.128906 884.628906 C 280.273438 881.769531 269.960938 872.417969 269.6875 862.59375 L 269.46875 860.152344 L 263.085938 860.160156 C 261.535156 860.15625 259.890625 860.214844 258.371094 859.859375 L 257.460938 859.644531 C 252.285156 858.417969 248.507812 854.308594 247.195312 849.226562 L 246.980469 848.371094 C 245.445312 841.347656 250.417969 833.886719 257.382812 832.398438 L 257.816406 832.308594 C 261.289062 831.414062 265.609375 831.84375 269.210938 831.847656 L 269.171875 818.808594 C 261.953125 819.480469 253.289062 819.425781 248.945312 812.550781 C 247.085938 809.609375 246.371094 805.359375 247.144531 801.980469 L 247.316406 801.199219 C 249.9375 790.210938 260.566406 790.894531 269.152344 790.890625 C 269.371094 789.84375 269.195312 788.480469 269.191406 787.402344 L 269.242188 778.734375 C 263.398438 778.40625 257.207031 779.464844 252.339844 775.359375 L 251.472656 774.613281 C 246.082031 769.613281 245.269531 760.871094 250.398438 755.371094 C 255.394531 750.011719 262.527344 750.996094 269.152344 750.742188 L 269.148438 738.074219 L 263.09375 738.085938 C 259.695312 738.074219 256.367188 737.542969 253.390625 735.746094 C 246.96875 731.875 244.738281 722.796875 248.832031 716.421875 C 253.425781 709.273438 261.78125 709.933594 269.148438 709.929688 L 269.234375 697.332031 C 264.355469 697.234375 258.527344 697.878906 254.0625 695.605469 L 252.691406 694.886719 C 249.917969 693.152344 247.988281 690.042969 247.242188 686.898438 L 247.171875 686.59375 C 246.0625 681.871094 247.316406 676.820312 250.777344 673.335938 C 255.644531 668.433594 262.808594 669.242188 269.128906 669.253906 L 269.148438 656.527344 C 263.960938 656.519531 257.867188 657.214844 253.273438 654.328125 L 252.546875 653.859375 C 243.011719 647.210938 245.792969 630.695312 257.996094 628.84375 L 258.347656 628.792969 C 261.867188 628.242188 265.585938 628.441406 269.148438 628.441406 L 269.148438 615.46875 C 263.542969 615.484375 257.089844 616.199219 252.398438 612.441406 L 252.167969 612.253906 C 243.835938 605.558594 245.148438 591.507812 256.011719 588.0625 C 258.269531 587.347656 260.679688 587.335938 263.03125 587.3125 L 269.679688 587.164062 C 270 578.921875 269.289062 571.1875 274.804688 564.351562 C 280.320312 557.511719 286.816406 553.875 295.539062 552.925781 Z M 335.171875 566.550781 L 301.722656 566.5625 C 294.078125 566.570312 286.917969 568.550781 283.714844 576.394531 C 282.992188 578.160156 283.015625 585.324219 283.445312 587.445312 L 291.90625 587.332031 C 299.617188 587.339844 304.726562 590.992188 305.722656 599.203125 C 307.199219 611.390625 300.222656 615.480469 289.773438 615.464844 L 283.316406 615.386719 L 283.292969 628.523438 L 290.582031 628.472656 C 292.402344 628.464844 294.277344 628.335938 296.03125 628.886719 L 296.359375 628.988281 C 307.617188 632.4375 309.816406 649.734375 299.101562 655.117188 L 296.625 656.054688 C 294.839844 656.585938 292.816406 656.480469 290.96875 656.492188 L 283.292969 656.5 L 283.304688 669.363281 C 287.148438 669.3125 291.457031 668.894531 295.234375 669.597656 L 295.558594 669.648438 C 299.671875 670.378906 304.238281 674.949219 305.058594 679.164062 L 305.101562 679.378906 C 306.09375 684.339844 305.09375 692.277344 300.453125 695.222656 C 295.203125 698.558594 289.15625 696.589844 283.417969 697.394531 L 283.292969 710.082031 C 288.804688 709.953125 296.492188 708.984375 300.855469 713.078125 C 305.847656 717.769531 306.710938 726.511719 303.507812 732.449219 L 303.394531 732.660156 C 300.960938 737.21875 296.625 738.078125 291.949219 738.082031 L 283.351562 737.925781 L 283.292969 750.992188 C 294.402344 750.972656 305.78125 750.902344 305.730469 765.675781 L 305.480469 768.242188 C 304.894531 772.917969 301.082031 776.886719 296.648438 778.195312 L 296.414062 778.269531 C 294.734375 778.773438 292.792969 778.597656 291.054688 778.597656 L 283.351562 778.59375 L 283.324219 787.226562 C 283.328125 788.695312 283.234375 790.246094 283.394531 791.703125 L 292.945312 791.320312 C 294.566406 791.324219 296.207031 791.160156 297.710938 791.847656 C 305.347656 795.332031 307.683594 805.6875 304.257812 812.910156 L 304.136719 813.167969 C 303.054688 815.417969 300.660156 817.488281 298.3125 818.308594 L 297.171875 818.664062 C 294.992188 819.339844 286.070312 819.3125 283.394531 818.84375 L 283.359375 831.828125 C 291.105469 831.832031 299.578125 831.085938 303.859375 838.90625 L 304.007812 839.152344 C 308.316406 846.644531 303.867188 858.097656 295.058594 859.457031 L 294.789062 859.5 C 291.101562 860.066406 287.183594 859.722656 283.484375 859.4375 L 283.878906 861.660156 C 284.082031 862.878906 284.390625 863.957031 284.972656 865.050781 L 285.066406 865.238281 C 286.003906 866.992188 287.785156 868.417969 289.367188 869.574219 C 292.648438 871.460938 295.113281 871.945312 298.792969 871.941406 L 477.183594 871.957031 C 479.003906 871.980469 480.8125 872.140625 482.597656 871.742188 C 488.066406 870.523438 494.8125 865.144531 495.117188 859.101562 L 495.152344 585.988281 C 495.136719 579.058594 494.667969 571.777344 487.460938 568.269531 L 487.265625 568.171875 C 481.488281 565.351562 470.300781 566.550781 463.957031 566.550781 Z M 335.171875 566.550781 " fill-opacity="1" fill-rule="nonzero"/></g><path fill="#545454" d="M 322.628906 827.121094 L 478.851562 827.148438 L 478.789062 840.464844 L 322.664062 840.523438 C 322.40625 840.105469 322.625 828.71875 322.628906 827.121094 Z M 322.628906 827.121094 " fill-opacity="1" fill-rule="nonzero"/><path fill="#545454" d="M 328.152344 681.652344 L 478.898438 681.769531 L 478.679688 695.378906 L 473.617188 695.273438 L 322.566406 695.226562 L 322.597656 681.773438 C 324.273438 681.449219 326.421875 681.664062 328.152344 681.652344 Z M 328.152344 681.652344 " fill-opacity="1" fill-rule="nonzero"/><path fill="#545454" d="M 359.496094 790.886719 L 478.574219 790.917969 C 478.898438 791.445312 478.75 793.144531 478.757812 793.816406 L 478.769531 804.574219 C 478.054688 804.785156 476.835938 804.59375 476.0625 804.574219 L 441.5625 804.515625 L 322.589844 804.550781 L 322.457031 791.066406 C 326.597656 790.601562 331.074219 790.898438 335.25 790.894531 Z M 359.496094 790.886719 " fill-opacity="1" fill-rule="nonzero"/><path fill="#545454" d="M 368.398438 717.890625 L 478.875 717.902344 L 478.792969 731.453125 L 432.746094 731.53125 L 322.644531 731.457031 L 322.621094 722.300781 C 322.613281 720.996094 322.773438 719.4375 322.53125 718.160156 Z M 368.398438 717.890625 " fill-opacity="1" fill-rule="nonzero"/><path fill="#545454" d="M 439.949219 754.339844 L 478.746094 754.433594 L 478.710938 768.117188 L 361.730469 768.101562 L 322.753906 768.042969 L 322.742188 754.4375 Z M 439.949219 754.339844 " fill-opacity="1" fill-rule="nonzero"/><path fill="#545454" d="M 330.164062 594.640625 L 471.1875 594.605469 C 476.722656 594.789062 478.863281 597.734375 478.804688 602.757812 L 478.792969 638.878906 C 478.792969 643.828125 480.277344 651.953125 474.0625 653.785156 L 473.835938 653.851562 C 473.03125 654.09375 472.230469 654.046875 471.398438 654.042969 C 470.769531 653.980469 469.835938 654.09375 469.179688 654.09375 L 343.199219 654.132812 C 338.660156 654.136719 334 654.351562 329.472656 654.078125 C 323.386719 653.707031 323.3125 647.597656 323.296875 642.800781 L 323.242188 607.304688 C 323.144531 601.453125 323.03125 595.4375 330.164062 594.640625 Z M 336.910156 608.132812 L 336.910156 629.785156 C 336.914062 633.226562 336.617188 636.964844 336.972656 640.378906 L 465.121094 640.367188 L 465.125 608.492188 Z M 336.910156 608.132812 " fill-opacity="1" fill-rule="nonzero"/></svg>